 <svg  version="1.0" xmlns="http://www.w3.org/2000/svg"  width="299.000000pt" height="169.000000pt" viewBox="0 0 299.000000 169.000000"  preserveAspectRatio="xMidYMid meet">  <g transform="translate(0.000000,169.000000) scale(0.100000,-0.100000)" fill="#364bb5" stroke="none"> <path d="M0 845 l0 -845 1495 0 1495 0 0 845 0 845 -1495 0 -1495 0 0 -845z m2504 422 c17 -12 17 -27 5 -275 -11 -213 -16 -265 -29 -276 -13 -12 -109 -24 -197 -26 -18 0 -27 -13 -50 -75 -15 -41 -30 -75 -33 -75 -4 0 -21 32 -40 70 -36 75 -38 76 -112 64 l-38 -7 0 -77 c0 -105 0 -105 -163 -105 l-129 0 -48 -83 -47 -83 -29 82 c-31 88 -43 99 -113 99 -51 0 -61 14 -61 86 l0 62 43 -5 c54 -7 60 -13 14 -13 l-37 0 0 -49 c0 -55 7 -61 74 -61 53 0 72 -19 91 -90 8 -29 16 -54 19 -57 2 -3 21 27 40 66 l36 71 122 0 c152 0 158 4 158 101 0 55 3 67 14 63 20 -8 25 16 27 131 3 107 6 128 20 119 5 -3 9 -54 9 -115 l0 -109 38 0 c43 0 66 -19 91 -76 l16 -35 23 59 24 59 51 7 c29 3 73 6 100 6 81 0 81 1 96 272 7 130 10 241 6 248 -7 11 -53 9 -165 -10 -30 -5 -109 -16 -175 -25 -66 -8 -146 -21 -177 -27 l-58 -12 0 -41 c0 -22 3 -57 6 -77 6 -34 10 -38 37 -38 34 0 77 -34 77 -59 -1 -12 -3 -11 -12 4 -24 44 -81 61 -110 32 -7 -8 -26 -17 -41 -20 -44 -12 -297 -18 -297 -8 0 9 54 15 233 27 l97 6 -5 52 c-3 28 -8 67 -10 87 -4 26 0 40 13 51 11 10 104 28 282 53 146 21 267 39 269 41 8 8 28 4 45 -9z m-1204 -18 c296 -14 285 -9 276 -119 -3 -41 -8 -133 -12 -205 -3 -71 -9 -157 -13 -190 -7 -70 -9 -71 -144 -81 -85 -6 -89 -7 -98 -32 -5 -15 -20 -49 -33 -77 l-23 -50 -33 73 -33 74 -77 -7 c-117 -10 -116 -13 -129 220 -6 105 -11 205 -11 223 0 22 -4 31 -11 26 -7 -4 -9 -26 -7 -56 3 -29 2 -44 -3 -36 -5 7 -9 30 -9 51 0 42 3 41 -95 26 -106 -15 -124 -18 -200 -25 -155 -14 -155 -14 -156 -68 -3 -133 4 -353 11 -367 7 -11 39 -21 110 -32 l101 -15 58 -56 c32 -30 57 -57 55 -59 -2 -2 3 -4 11 -4 11 0 14 9 11 36 -6 56 5 67 61 64 26 -2 54 -5 61 -8 29 -11 61 7 67 36 4 16 11 29 16 29 14 0 10 -33 -7 -59 -15 -21 -22 -23 -101 -19 l-85 3 7 -75 7 -75 -28 25 c-15 14 -57 52 -92 86 l-65 61 -96 12 c-53 7 -102 18 -108 23 -10 8 -13 66 -13 229 0 218 0 219 23 229 12 5 105 19 207 30 102 11 203 23 225 26 l40 6 -4 44 c-6 83 9 105 69 98 14 -2 135 -8 270 -15z m948 -85 c56 -6 62 -9 71 -35 11 -31 -4 -65 -73 -169 l-36 -55 50 -5 c27 -3 55 -11 61 -17 14 -14 3 -87 -12 -78 -5 4 -9 1 -9 -5 0 -13 -190 -8 -211 6 -23 14 -4 96 40 164 23 36 41 69 41 74 0 5 -15 10 -32 10 -41 1 -58 16 -58 51 0 65 24 74 168 59z m-1427 -165 c47 -33 59 -68 61 -171 0 -67 5 -98 16 -110 13 -16 13 -20 -3 -44 -14 -22 -22 -25 -48 -20 -18 3 -48 1 -67 -4 -77 -23 -150 13 -175 85 -18 53 -11 187 12 225 35 60 146 81 204 39z m141 -104 c3 -49 2 -76 -2 -60 -8 30 -13 162 -6 154 2 -2 5 -44 8 -94z m625 -47 c-2 -18 -4 -4 -4 32 0 36 2 50 4 33 2 -18 2 -48 0 -65z m167 46 c14 -5 16 -28 16 -154 0 -163 -2 -167 -62 -147 l-28 9 0 137 c0 133 1 138 23 149 27 13 31 14 51 6z m243 -121 c-2 -16 -4 -5 -4 22 0 28 2 40 4 28 2 -13 2 -35 0 -50z m-988 -144 c26 -21 15 -26 -13 -6 -19 14 -36 79 -34 132 0 17 5 -1 12 -38 8 -52 17 -74 35 -88z m571 76 c0 -26 -31 -65 -52 -65 -7 0 -4 6 7 12 26 15 35 28 35 56 0 12 2 22 5 22 3 0 5 -11 5 -25z"/> <path d="M984 1084 c15 -343 22 -414 42 -428 10 -8 21 -11 24 -7 8 12 120 21 120 10 0 -5 7 -9 15 -9 8 0 25 -20 37 -45 21 -42 23 -44 39 -27 9 9 15 20 12 25 -2 4 0 7 5 7 6 0 8 10 5 23 -3 12 -2 19 2 15 10 -10 37 11 29 23 -3 5 37 7 94 5 68 -3 105 -1 116 7 14 10 18 50 25 262 5 145 6 254 0 261 -4 5 -52 11 -106 13 -53 1 -100 4 -103 6 -3 2 -86 7 -184 10 l-179 8 7 -159z m230 57 c3 -5 8 -66 10 -136 2 -70 8 -131 14 -137 5 -5 20 -8 33 -6 30 4 36 31 38 165 1 92 3 103 21 113 12 6 33 10 48 8 33 -4 39 -30 41 -173 2 -88 -1 -111 -19 -145 -51 -100 -208 -105 -265 -9 -17 28 -21 56 -23 165 -4 128 -3 132 19 148 25 17 74 22 83 7z"/> <path d="M1140 995 c0 -153 9 -184 62 -211 40 -21 120 -14 149 12 39 35 49 76 49 209 l0 125 -35 0 -35 0 0 -129 c0 -145 -6 -161 -64 -161 -52 0 -56 11 -56 157 l0 133 -35 0 -35 0 0 -135z"/> <path d="M2100 1110 l0 -30 67 0 c62 0 65 -1 51 -17 -43 -52 -118 -187 -118 -213 l0 -30 105 0 105 0 0 30 0 30 -70 0 -70 0 65 100 c43 66 65 111 65 130 l0 30 -100 0 -100 0 0 -30z"/> <path d="M683 995 c-51 -22 -66 -56 -71 -154 -3 -78 -2 -89 20 -121 13 -19 35 -40 48 -47 31 -16 91 -17 124 -2 20 9 29 9 41 -1 12 -10 18 -10 30 0 8 7 15 19 15 27 0 7 -7 16 -15 19 -12 5 -15 26 -15 106 0 116 -14 152 -65 174 -42 17 -71 17 -112 -1z m101 -77 c10 -14 16 -44 16 -80 0 -57 -6 -68 -26 -48 -7 7 -17 4 -30 -11 -17 -19 -18 -21 -1 -30 23 -13 22 -29 -3 -29 -42 0 -60 34 -60 114 0 54 4 79 16 90 23 24 70 20 88 -6z"/> <path d="M712 918 c-14 -14 -17 -144 -4 -152 5 -3 15 6 22 19 7 14 21 27 31 30 14 5 17 14 13 52 -2 25 -7 50 -10 54 -8 13 -38 11 -52 -3z"/> <path d="M1700 740 l0 -140 30 0 30 0 0 140 0 140 -30 0 -30 0 0 -140z"/> </g> </svg> 