<?xml version="1.0" standalone="no"?>
<!DOCTYPE svg PUBLIC "-//W3C//DTD SVG 20010904//EN"
 "http://www.w3.org/TR/2001/REC-SVG-20010904/DTD/svg10.dtd">
<svg version="1.0" xmlns="http://www.w3.org/2000/svg"
 width="299.000000pt" height="169.000000pt" viewBox="0 0 299.000000 169.000000"
 preserveAspectRatio="xMidYMid meet">
<metadata>
Created by potrace 1.10, written by Peter Selinger 2001-2011
</metadata>
<g transform="translate(0.000000,169.000000) scale(0.100000,-0.100000)"
fill="#4054ba" stroke="none">
<path d="M2459 1276 c-2 -2 -123 -20 -269 -41 -178 -25 -271 -43 -282 -53 -13
-11 -17 -25 -13 -51 2 -20 7 -59 10 -87 l5 -52 -97 -6 c-179 -12 -233 -18
-233 -27 0 -10 253 -4 297 8 15 3 34 12 41 20 29 29 86 12 110 -32 9 -15 11
-16 12 -4 0 25 -43 59 -77 59 -27 0 -31 4 -37 38 -3 20 -6 55 -6 77 l0 41 58
12 c31 6 111 19 177 27 66 9 145 20 175 25 112 19 158 21 165 10 4 -7 1 -118
-6 -248 -15 -271 -15 -272 -96 -272 -27 0 -71 -3 -100 -6 l-51 -7 -24 -59 -23
-59 -16 35 c-25 57 -48 76 -91 76 l-38 0 0 109 c0 61 -4 112 -9 115 -14 9 -17
-12 -20 -119 -2 -115 -7 -139 -27 -131 -11 4 -14 -8 -14 -63 0 -97 -6 -101
-158 -101 l-122 0 -36 -71 c-19 -39 -38 -69 -40 -66 -3 3 -11 28 -19 57 -19
71 -38 90 -91 90 -67 0 -74 6 -74 61 l0 49 37 0 c46 0 40 6 -14 13 l-43 5 0
-62 c0 -72 10 -86 61 -86 70 0 82 -11 113 -99 l29 -82 47 83 48 83 129 0 c163
0 163 0 163 105 l0 77 38 7 c74 12 76 11 112 -64 19 -38 36 -70 40 -70 3 0 18
34 33 75 23 62 32 75 50 75 88 2 184 14 197 26 13 11 18 63 29 276 12 248 12
263 -5 275 -17 13 -37 17 -45 9z"/>
<path d="M988 1263 c-22 -5 -31 -39 -27 -97 l4 -44 -40 -6 c-22 -3 -123 -15
-225 -26 -102 -11 -195 -25 -207 -30 -23 -10 -23 -11 -23 -229 0 -163 3 -221
13 -229 6 -5 55 -16 108 -23 l96 -12 65 -61 c35 -34 77 -72 92 -86 l28 -25 -7
75 -7 75 85 -3 c79 -4 86 -2 101 19 17 26 21 59 7 59 -5 0 -12 -13 -16 -29 -6
-29 -38 -47 -67 -36 -7 3 -35 6 -61 8 -56 3 -67 -8 -61 -64 3 -27 0 -36 -11
-36 -8 0 -13 2 -11 4 2 2 -23 29 -55 59 l-58 56 -101 15 c-71 11 -103 21 -110
32 -7 14 -14 234 -11 367 1 54 1 54 156 68 76 7 94 10 200 25 98 15 95 16 95
-26 0 -21 4 -44 9 -51 5 -8 6 7 3 36 -2 30 0 52 7 56 7 5 11 -4 11 -26 0 -18
5 -118 11 -223 13 -233 12 -230 129 -220 l77 7 33 -74 33 -73 23 50 c13 28 28
62 33 77 9 25 13 26 98 32 135 10 137 11 144 81 4 33 10 119 13 190 4 72 9
164 12 205 9 110 20 105 -276 119 -135 7 -256 13 -270 15 -14 2 -33 1 -42 -1z
m352 -38 c3 -2 50 -5 103 -6 54 -2 102 -8 106 -13 6 -7 5 -116 0 -261 -7 -212
-11 -252 -25 -262 -11 -8 -48 -10 -116 -7 -57 2 -97 0 -94 -5 8 -12 -19 -33
-29 -23 -4 4 -5 -3 -2 -15 3 -13 1 -23 -5 -23 -5 0 -7 -3 -5 -7 3 -5 -3 -16
-12 -25 -16 -17 -18 -15 -39 27 -12 25 -29 45 -37 45 -8 0 -15 4 -15 9 0 11
-112 2 -120 -10 -3 -4 -14 -1 -24 7 -20 14 -27 85 -42 428 l-7 159 179 -8 c98
-3 181 -8 184 -10z"/>
<path d="M1131 1134 c-22 -16 -23 -20 -19 -148 2 -109 6 -137 23 -165 57 -96
214 -91 265 9 18 34 21 57 19 145 -2 143 -8 169 -41 173 -15 2 -36 -2 -48 -8
-18 -10 -20 -21 -21 -113 -2 -134 -8 -161 -38 -165 -13 -2 -28 1 -33 6 -6 6
-12 67 -14 137 -2 70 -7 131 -10 136 -9 15 -58 10 -83 -7z m79 -137 c0 -146 4
-157 56 -157 58 0 64 16 64 161 l0 129 35 0 35 0 0 -125 c0 -133 -10 -174 -49
-209 -29 -26 -109 -33 -149 -12 -53 27 -62 58 -62 211 l0 135 35 0 35 0 0
-133z"/>
<path d="M2090 1151 c-14 -27 -13 -70 3 -84 6 -7 27 -12 45 -13 17 0 32 -5 32
-10 0 -5 -18 -38 -41 -74 -44 -68 -63 -150 -40 -164 21 -14 211 -19 211 -6 0
6 4 9 9 5 15 -9 26 64 12 78 -6 6 -34 14 -61 17 l-50 5 36 55 c69 104 84 138
73 169 -9 26 -15 29 -71 35 -109 11 -146 8 -158 -13z m210 -41 c0 -19 -22 -64
-65 -130 l-65 -100 70 0 70 0 0 -30 0 -30 -105 0 -105 0 0 30 c0 26 75 161
118 213 14 16 11 17 -51 17 l-67 0 0 30 0 30 100 0 100 0 0 -30z"/>
<path d="M664 1004 c-46 -23 -64 -62 -68 -152 -4 -91 11 -145 49 -178 32 -28
89 -38 135 -24 19 5 49 7 67 4 26 -5 34 -2 48 20 16 24 16 28 3 44 -11 12 -16
43 -16 110 -2 103 -14 138 -61 171 -35 25 -111 28 -157 5z m131 -8 c51 -22 65
-58 65 -174 0 -80 3 -101 15 -106 8 -3 15 -12 15 -19 0 -8 -7 -20 -15 -27 -12
-10 -18 -10 -30 0 -12 10 -21 10 -41 1 -33 -15 -93 -14 -124 2 -13 7 -35 28
-48 47 -22 32 -23 43 -20 121 5 98 20 132 71 154 41 18 70 18 112 1z"/>
<path d="M696 924 c-12 -11 -16 -36 -16 -90 0 -80 18 -114 60 -114 25 0 26 16
3 29 -17 9 -16 11 1 30 13 15 23 18 30 11 20 -20 26 -9 26 48 0 70 -19 102
-60 102 -16 0 -36 -7 -44 -16z m68 -3 c3 -4 8 -29 10 -54 4 -38 1 -47 -13 -52
-10 -3 -24 -16 -31 -30 -7 -13 -17 -22 -22 -19 -13 8 -10 138 4 152 14 14 44
16 52 3z"/>
<path d="M951 929 c1 -35 5 -77 9 -94 4 -16 5 11 2 60 -6 105 -13 127 -11 34z"/>
<path d="M1583 880 c0 -36 2 -50 4 -32 2 17 2 47 0 65 -2 17 -4 3 -4 -33z"/>
<path d="M1703 888 c-22 -11 -23 -16 -23 -149 l0 -137 28 -9 c60 -20 62 -16
62 147 0 126 -2 149 -16 154 -20 8 -24 7 -51 -6z m57 -148 l0 -140 -30 0 -30
0 0 140 0 140 30 0 30 0 0 -140z"/>
<path d="M1993 795 c0 -27 2 -38 4 -22 2 15 2 37 0 50 -2 12 -4 0 -4 -28z"/>
<path d="M962 755 c-2 -53 15 -118 34 -132 28 -20 39 -15 13 6 -18 14 -27 36
-35 88 -7 37 -12 55 -12 38z"/>
<path d="M1570 708 c0 -28 -9 -41 -35 -56 -11 -6 -14 -12 -7 -12 21 0 52 39
52 65 0 14 -2 25 -5 25 -3 0 -5 -10 -5 -22z"/>
</g>
</svg>
