<svg xmlns="http://www.w3.org/2000/svg" width="299" height="169" viewBox="0 0 299 169" version="1.1">
	<path d="M 219 45.188 C 200.508 47.968, 191.957 49.659, 190.703 50.784 C 188.903 52.397, 188.875 55.630, 190.565 66.629 L 191.045 69.759 181.273 70.405 C 175.898 70.760, 168.227 71.318, 164.228 71.645 L 156.956 72.239 157.617 59.858 C 158.151 49.872, 158.009 47.252, 156.882 46.317 C 156.034 45.613, 147.633 44.737, 135.493 44.088 C 124.497 43.499, 111.825 42.752, 107.333 42.426 C 100.021 41.896, 98.955 42.045, 97.148 43.852 C 95.439 45.561, 95.219 46.718, 95.705 51.435 C 96.021 54.496, 95.879 56.997, 95.390 56.993 C 90.857 56.960, 49.204 62.486, 48.250 63.247 C 46.398 64.725, 46.462 107.309, 48.318 108.849 C 49.043 109.451, 54.075 110.610, 59.501 111.425 L 69.365 112.907 77.453 120.953 C 81.902 125.379, 85.928 129, 86.400 129 C 86.872 129, 86.948 125.850, 86.569 122 L 85.879 115 94.904 115 C 104.738 115, 106 114.268, 106 108.566 C 106 106.406, 106.455 106, 108.875 106 C 110.456 106, 113.125 105.725, 114.806 105.389 C 117.764 104.797, 117.979 105.009, 121.464 111.928 C 123.444 115.861, 125.420 118.859, 125.854 118.590 C 126.289 118.322, 127.889 114.929, 129.410 111.051 L 132.177 104 137.088 104 L 142 104 142 110.300 C 142 113.867, 142.521 117.121, 143.200 117.800 C 143.860 118.460, 146.223 119.032, 148.450 119.070 C 155.133 119.186, 156.197 120.074, 159.029 127.900 C 160.467 131.876, 162.062 135.107, 162.572 135.081 C 163.082 135.054, 165.365 131.763, 167.645 127.766 L 171.791 120.500 184.431 120.873 C 200.605 121.350, 201 121.087, 201 109.845 L 201 102 203.875 102 C 205.456 102, 208.052 101.740, 209.644 101.421 C 212.401 100.870, 212.699 101.176, 215.962 107.921 C 217.845 111.815, 219.637 114.989, 219.943 114.976 C 220.249 114.963, 221.851 111.700, 223.502 107.726 L 226.505 100.500 235.502 99.773 C 246.542 98.880, 248.631 98.404, 249.314 96.624 C 249.608 95.858, 250.419 83.649, 251.117 69.493 C 252.341 44.648, 252.320 43.707, 250.501 42.377 C 248.159 40.664, 250.459 40.459, 219 45.188 M 210 57.954 C 210 60.886, 210.048 60.911, 216.362 61.204 L 222.725 61.500 216.370 71.500 C 212.551 77.510, 210.012 82.597, 210.008 84.250 L 210 87 220 87 L 230 87 230 84.046 C 230 81.114, 229.952 81.089, 223.638 80.796 L 217.275 80.500 223.630 70.500 C 227.449 64.490, 229.988 59.403, 229.992 57.750 L 230 55 220 55 L 210 55 210 57.954 M 114.154 70.921 C 114.481 84.065, 114.636 84.987, 116.940 87.438 C 122.257 93.095, 132.459 93.045, 136.946 87.341 C 138.794 84.993, 139 83.337, 139 70.865 L 139 57 136 57 L 133 57 133 69.878 C 133 83.612, 132.783 84.263, 127.795 85.515 C 125.690 86.044, 124.543 85.634, 122.550 83.641 C 120.099 81.190, 120 80.624, 120 69.045 L 120 57 116.904 57 L 113.808 57 114.154 70.921 M 71 68.652 C 63.498 71.123, 62 74.050, 62 86.228 C 62 96.487, 62.943 98.885, 68.011 101.506 C 71.682 103.404, 76.302 103.412, 79.949 101.526 C 82.460 100.228, 82.944 100.228, 84.022 101.526 C 85.652 103.490, 86.276 103.389, 87.825 100.908 C 88.940 99.123, 88.882 98.634, 87.429 97.572 C 86.005 96.531, 85.759 94.759, 85.921 86.725 C 86.156 75.070, 84.909 71.981, 79.018 69.624 C 74.841 67.953, 73.585 67.800, 71 68.652 M 69.035 76.934 C 68.466 77.998, 68 82.248, 68 86.378 C 68 93.004, 68.261 94.070, 70.223 95.443 C 72.750 97.213, 76 97.509, 76 95.969 C 76 95.401, 75.342 94.685, 74.538 94.376 C 73.274 93.891, 73.294 93.480, 74.686 91.356 C 75.813 89.637, 76.614 89.214, 77.349 89.949 C 79.435 92.035, 80 90.891, 80 84.571 C 80 77.072, 78.585 75, 73.464 75 C 71.132 75, 69.746 75.605, 69.035 76.934 M 170.222 94.750 L 170.500 108.500 173 108.500 L 175.500 108.500 175.778 94.750 L 176.056 81 173 81 L 169.944 81 170.222 94.750" stroke="none" fill="#4c60c2" fill-rule="evenodd"/>
</svg>